HIERARCHY
ROOT Hips
{
    OFFSET   0.000000   0.000000   0.000000
    CHANNELS 6 Xposition Yposition Zposition Zrotation Xrotation Yrotation
    JOINT Chest
    {
        OFFSET   0.000000   8.007230   0.000000
        CHANNELS 3 Zrotation Xrotation Yrotation
        JOINT Chest2
        {
            OFFSET   0.000000  22.077100   0.000000
            CHANNELS 3 Zrotation Xrotation Yrotation
            JOINT Neck
            {
                OFFSET   0.000000  23.254800   0.000000
                CHANNELS 3 Zrotation Xrotation Yrotation
                JOINT Head
                {
                    OFFSET   0.000010  14.370000   1.956600
                    CHANNELS 3 Zrotation Xrotation Yrotation
                    End Site
                    {
                        OFFSET   0.000000  19.566000   0.000000
                    }
                }
            }
            JOINT LeftCollar
            {
                OFFSET   3.911900  19.017000  -0.467062
                CHANNELS 3 Zrotation Xrotation Yrotation
                JOINT LeftShoulder
                {
                    OFFSET  10.383700   0.000000   0.000000
                    CHANNELS 3 Zrotation Xrotation Yrotation
                    JOINT LeftElbow
                    {
                        OFFSET  26.662100   0.001193   0.000835
                        CHANNELS 3 Zrotation Xrotation Yrotation
                        JOINT LeftWrist
                        {
                            OFFSET  28.869000  -0.000058  -0.000075
                            CHANNELS 3 Zrotation Xrotation Yrotation
                            JOINT LeftFinger0
                            {
                                OFFSET   2.044660  -2.323460   3.252850
                                CHANNELS 3 Zrotation Xrotation Yrotation
                                JOINT LeftFinger01
                                {
                                    OFFSET   3.088130   0.000000   0.000000
                                    CHANNELS 3 Zrotation Xrotation Yrotation
                                    JOINT LeftFinger02
                                    {
                                        OFFSET   2.639450   0.000000   0.000000
                                        CHANNELS 3 Zrotation Xrotation Yrotation
                                        End Site
                                        {
                                            OFFSET   2.582190   0.000000   0.000000
                                        }
                                    }
                                }
                            }
                            JOINT LeftFinger1
                            {
                                OFFSET   8.364480   0.000000   3.252850
                                CHANNELS 3 Zrotation Xrotation Yrotation
                                JOINT LeftFinger11
                                {
                                    OFFSET   4.646920   0.000000   0.000000
                                    CHANNELS 3 Zrotation Xrotation Yrotation
                                    JOINT LeftFinger12
                                    {
                                        OFFSET   2.323460   0.000000   0.000000
                                        CHANNELS 3 Zrotation Xrotation Yrotation
                                        End Site
                                        {
                                            OFFSET   2.273050   0.000000   0.000000
                                        }
                                    }
                                }
                            }
                            JOINT LeftFinger2
                            {
                                OFFSET   8.364490   0.000016   1.078090
                                CHANNELS 3 Zrotation Xrotation Yrotation
                                JOINT LeftFinger21
                                {
                                    OFFSET   5.111620   0.000000   0.000000
                                    CHANNELS 3 Zrotation Xrotation Yrotation
                                    JOINT LeftFinger22
                                    {
                                        OFFSET   2.788150   0.000012   0.000000
                                        CHANNELS 3 Zrotation Xrotation Yrotation
                                        End Site
                                        {
                                            OFFSET   2.727660   0.000000   0.000000
                                        }
                                    }
                                }
                            }
                            JOINT LeftFinger3
                            {
                                OFFSET   7.899780   0.000014  -1.078090
                                CHANNELS 3 Zrotation Xrotation Yrotation
                                JOINT LeftFinger31
                                {
                                    OFFSET   4.646930   0.000000   0.000000
                                    CHANNELS 3 Zrotation Xrotation Yrotation
                                    JOINT LeftFinger32
                                    {
                                        OFFSET   2.323470   0.000000   0.000000
                                        CHANNELS 3 Zrotation Xrotation Yrotation
                                        End Site
                                        {
                                            OFFSET   2.273050   0.000000   0.000000
                                        }
                                    }
                                }
                            }
                            JOINT LeftFinger4
                            {
                                OFFSET   7.435090   0.000000  -3.252850
                                CHANNELS 3 Zrotation Xrotation Yrotation
                                JOINT LeftFinger41
                                {
                                    OFFSET   3.717550   0.000000   0.000000
                                    CHANNELS 3 Zrotation Xrotation Yrotation
                                    JOINT LeftFinger42
                                    {
                                        OFFSET   1.858770   0.000000   0.000000
                                        CHANNELS 3 Zrotation Xrotation Yrotation
                                        End Site
                                        {
                                            OFFSET   1.818440   0.000000   0.000000
                                        }
                                    }
                                }
                            }
                        }
                    }
                }
            }
            JOINT RightCollar
            {
                OFFSET  -3.911900  19.017000  -0.467063
                CHANNELS 3 Zrotation Xrotation Yrotation
                JOINT RightShoulder
                {
                    OFFSET -10.383700   0.000023   0.000000
                    CHANNELS 3 Zrotation Xrotation Yrotation
                    JOINT RightElbow
                    {
                        OFFSET -26.662100   0.001246   0.001011
                        CHANNELS 3 Zrotation Xrotation Yrotation
                        JOINT RightWrist
                        {
                            OFFSET -28.869000  -0.000026  -0.000078
                            CHANNELS 3 Zrotation Xrotation Yrotation
                            JOINT RightFinger0
                            {
                                OFFSET  -2.044660  -2.323490   3.252850
                                CHANNELS 3 Zrotation Xrotation Yrotation
                                JOINT RightFinger01
                                {
                                    OFFSET  -3.088130   0.000000   0.000000
                                    CHANNELS 3 Zrotation Xrotation Yrotation
                                    JOINT RightFinger02
                                    {
                                        OFFSET  -2.639460   0.000000   0.000000
                                        CHANNELS 3 Zrotation Xrotation Yrotation
                                        End Site
                                        {
                                            OFFSET  -2.582190   0.000000   0.000000
                                        }
                                    }
                                }
                            }
                            JOINT RightFinger1
                            {
                                OFFSET  -8.364480   0.000000   3.252850
                                CHANNELS 3 Zrotation Xrotation Yrotation
                                JOINT RightFinger11
                                {
                                    OFFSET  -4.646920   0.000000   0.000000
                                    CHANNELS 3 Zrotation Xrotation Yrotation
                                    JOINT RightFinger12
                                    {
                                        OFFSET  -2.323470   0.000000   0.000000
                                        CHANNELS 3 Zrotation Xrotation Yrotation
                                        End Site
                                        {
                                            OFFSET  -2.273050   0.000000   0.000000
                                        }
                                    }
                                }
                            }
                            JOINT RightFinger2
                            {
                                OFFSET  -8.364480   0.000000   1.078090
                                CHANNELS 3 Zrotation Xrotation Yrotation
                                JOINT RightFinger21
                                {
                                    OFFSET  -5.111620   0.000000   0.000000
                                    CHANNELS 3 Zrotation Xrotation Yrotation
                                    JOINT RightFinger22
                                    {
                                        OFFSET  -2.788160   0.000000   0.000000
                                        CHANNELS 3 Zrotation Xrotation Yrotation
                                        End Site
                                        {
                                            OFFSET  -2.727660   0.000000   0.000000
                                        }
                                    }
                                }
                            }
                            JOINT RightFinger3
                            {
                                OFFSET  -7.899780   0.000000  -1.078090
                                CHANNELS 3 Zrotation Xrotation Yrotation
                                JOINT RightFinger31
                                {
                                    OFFSET  -4.646930   0.000000   0.000000
                                    CHANNELS 3 Zrotation Xrotation Yrotation
                                    JOINT RightFinger32
                                    {
                                        OFFSET  -2.323470   0.000000   0.000000
                                        CHANNELS 3 Zrotation Xrotation Yrotation
                                        End Site
                                        {
                                            OFFSET  -2.273050   0.000000   0.000000
                                        }
                                    }
                                }
                            }
                            JOINT RightFinger4
                            {
                                OFFSET  -7.435090   0.000000  -3.252850
                                CHANNELS 3 Zrotation Xrotation Yrotation
                                JOINT RightFinger41
                                {
                                    OFFSET  -3.717550   0.000000   0.000000
                                    CHANNELS 3 Zrotation Xrotation Yrotation
                                    JOINT RightFinger42
                                    {
                                        OFFSET  -1.858760   0.000000   0.000000
                                        CHANNELS 3 Zrotation Xrotation Yrotation
                                        End Site
                                        {
                                            OFFSET  -1.818440   0.000000   0.000000
                                        }
                                    }
                                }
                            }
                        }
                    }
                }
            }
        }
    }
    JOINT LeftHip
    {
        OFFSET   9.783010   0.000000   0.000000
        CHANNELS 3 Zrotation Xrotation Yrotation
        JOINT LeftKnee
        {
            OFFSET   0.000073 -41.789100   0.001749
            CHANNELS 3 Zrotation Xrotation Yrotation
            JOINT LeftAnkle
            {
                OFFSET   0.000111 -41.133200  -0.000179
                CHANNELS 3 Zrotation Xrotation Yrotation
                JOINT LeftToe
                {
                    OFFSET   0.000000  -6.358960  14.674500
                    CHANNELS 3 Zrotation Xrotation Yrotation
                    End Site
                    {
                        OFFSET   0.000000   0.000000   3.913200
                    }
                }
            }
        }
    }
    JOINT RightHip
    {
        OFFSET  -9.783010   0.000000   0.000000
        CHANNELS 3 Zrotation Xrotation Yrotation
        JOINT RightKnee
        {
            OFFSET   0.000424 -41.789200   0.005205
            CHANNELS 3 Zrotation Xrotation Yrotation
            JOINT RightAnkle
            {
                OFFSET   0.000000 -41.133200  -0.000155
                CHANNELS 3 Zrotation Xrotation Yrotation
                JOINT RightToe
                {
                    OFFSET   0.000000  -6.358960  14.674500
                    CHANNELS 3 Zrotation Xrotation Yrotation
                    End Site
                    {
                        OFFSET   0.000000   0.000000   3.913200
                    }
                }
            }
        }
    }
}
MOTION
Frames: 6
Frame Time:   0.016667
 -0.059310  89.595000  -0.623233  -2.446660  -6.897770  -1.004230   0.216697   3.689340  -0.755913   0.483790   7.375480  -1.530610   0.164718   0.746957  -0.014571   0.271415   1.513400   3.888670  -0.590015  -2.134890   2.026000 -75.144700  11.095600   1.670260  -1.411970  -2.448840 -12.706400  13.942700  -4.870830  -1.979670  39.164500  28.102400 -48.887300 -29.310800   0.001672   0.014357  -9.649970   0.000824   0.006167 -31.189100   8.489700 -13.698400 -26.365300   0.003468  -0.001278 -18.444500   0.003453  -0.008671 -28.725900   1.372510  -2.483490 -40.739600  -0.006109  -0.006567 -27.132600  -0.001804  -0.014568 -28.631700   1.367950  -2.485930 -38.366200   0.002967  -0.001252 -25.551900   0.002524   0.000422 -33.756800   0.512393  -0.781645 -50.640400  -0.004224  -0.001004 -33.726500  -0.003002   0.001618   6.563010  -0.015491   2.112030  73.029700   1.870560  -6.684260   0.912864  -6.181950   7.841060  -6.871190  -8.461580   6.088670 -44.493100  25.486800  56.875600  16.227400  -0.005716   0.001769   3.113700  -0.000674   0.003837  26.465200   8.363300  16.286700  22.634200   0.006262  -0.000610  15.843900   0.009798  -0.000382  27.277000   5.651260  10.806400  30.853800   0.001611   0.007260  20.548600   0.006256   0.003744  25.037700   4.914880  10.411200  25.485000   0.005864   0.010732  16.973000   0.006934   0.006257  29.293300   1.367280   2.426350  43.983500   0.002335   0.000912  29.293000   0.007788   0.001364   0.822511   7.683240  -1.644210   1.024140   0.107755   8.052570  -0.093901  -1.881880  -0.994376   0.000000   0.000000   0.000000   4.682190   5.511310  -2.057020  -2.049130   4.257190 -16.146100  -0.371917  -4.023100   2.940620   0.000000   0.000000   0.000000
 -0.059309  89.595000  -0.628137  -2.445310  -6.906710  -0.991390   0.216720   3.695540  -0.756011   0.483920   7.387840  -1.530850   0.164675   0.747361  -0.014559   0.271237   1.513690   3.899270  -0.585489  -2.134930   2.026010 -75.144500  11.088100   1.670330  -1.412780  -2.435390 -12.717100  13.935800  -4.858220  -1.987970  39.166300  28.095500 -48.874500 -29.304000   0.001672   0.014360  -9.648960   0.000830   0.006175 -31.183200   8.499860 -13.720600 -26.357300   0.003470  -0.001278 -18.444500   0.003449  -0.008670 -28.725700   1.372500  -2.492440 -40.740300  -0.006106  -0.006559 -27.133100  -0.001803  -0.014567 -28.631500   1.367940  -2.494910 -38.352200   0.002968  -0.001252 -25.542600   0.002526   0.000431 -33.748700   0.512361  -0.781644 -50.628300  -0.004223  -0.000997 -33.718400  -0.003003   0.001619   6.562990  -0.015531   2.104440  73.025300   1.879300  -6.684290   0.913112  -6.175180   7.849640  -6.864550  -8.457400   6.105530 -44.493600  25.481000  56.900200  16.212200  -0.005719   0.001747   3.106110  -0.000674   0.003842  26.479400   8.378030  16.304100  22.648600   0.006262  -0.000610  15.854000   0.009796  -0.000385  27.282500   5.651340  10.801500  30.884600   0.001609   0.007258  20.569100   0.006253   0.003743  25.055500   4.914980  10.404400  25.502500   0.005863   0.010732  16.984600   0.006927   0.006257  29.320300   1.367320   2.415880  44.024100   0.002333   0.000906  29.320000   0.007787   0.001363   0.823399   7.711180  -1.644000   1.022230   0.053334   8.045540  -0.088861  -1.846600  -1.000350   0.000000   0.000000   0.000000   4.682810   5.510220  -2.057010  -2.046280   4.274300 -16.148800  -0.372116  -4.032610   2.929540   0.000000   0.000000   0.000000
 -0.059308  89.594900  -0.635821  -2.443050  -6.922960  -0.969679   0.216758   3.707060  -0.756158   0.484157   7.410860  -1.531210   0.164585   0.747765  -0.014545   0.270783   1.513960   3.920370  -0.578567  -2.134970   2.026020 -75.144200  11.075100   1.670370  -1.416400  -2.414910 -12.740700  13.928900  -4.845600  -1.996270  39.168200  28.088500 -48.861700 -29.293300   0.001672   0.014371  -9.646660   0.000842   0.006190 -31.177300   8.510010 -13.742800 -26.349300   0.003472  -0.001278 -18.444500   0.003445  -0.008669 -28.725500   1.372490  -2.501390 -40.745000  -0.006101  -0.006541 -27.136200  -0.001803  -0.014566 -28.631300   1.367930  -2.503880 -38.338300   0.002970  -0.001252 -25.533300   0.002529   0.000456 -33.740500   0.512289  -0.781642 -50.616100  -0.004221  -0.000978 -33.710300  -0.003003   0.001621   6.562970  -0.015571   2.091710  73.016900   1.888050  -6.684290   0.913512  -6.161370   7.868480  -6.849670  -8.444870   6.130790 -44.500600  25.479100  56.927600  16.193500  -0.005724   0.001724   3.096770  -0.000675   0.003850  26.493500   8.392760  16.321600  22.662900   0.006260  -0.000614  15.864100   0.009790  -0.000390  27.288000   5.651420  10.796700  30.915400   0.001606   0.007254  20.589600   0.006242   0.003739  25.073300   4.915090  10.397600  25.520000   0.005861   0.010729  16.996300   0.006910   0.006254  29.347300   1.367390   2.405420  44.064700   0.002330   0.000890  29.347000   0.007786   0.001359   0.824286   7.739120  -1.643780   1.020310  -0.001089   8.035870  -0.083977  -1.811310  -1.011490   0.000000   0.000000   0.000000   4.686070   5.509120  -2.056950  -2.045030   4.303980 -16.153900  -0.372579  -4.048490   2.910220  -0.000000   0.000000   0.000000
 -0.059338  89.594900  -0.641133  -2.441200  -6.938690  -0.951598   0.216774   3.718790  -0.756252   0.484351   7.434330  -1.531490   0.164469   0.745801  -0.014543   0.270274   1.510740   3.947500  -0.574072  -2.130190   2.025520 -75.144000  11.062800   1.670270  -1.423840  -2.400270 -12.773600  13.936700  -4.873440  -1.993130  39.173400  28.092100 -48.865400 -29.284200   0.001671   0.014392  -9.642460   0.000853   0.006205 -31.191900   8.505550 -13.728900 -26.359000   0.003469  -0.001279 -18.451300   0.003448  -0.008668 -28.726200   1.364470  -2.486680 -40.774500  -0.006101  -0.006511 -27.155900  -0.001804  -0.014567 -28.632000   1.359960  -2.489140 -38.360900   0.002972  -0.001255 -25.548300   0.002529   0.000501 -33.752900   0.512189  -0.777241 -50.634600  -0.004219  -0.000946 -33.722600  -0.002999   0.001623   6.562760  -0.010689   2.081310  73.007700   1.887560  -6.672290   0.914166  -6.144880   7.895720  -6.823130  -8.418060   6.147520 -44.513400  25.495800  56.910900  16.189400  -0.005729   0.001734   3.094710  -0.000679   0.003854  26.475500   8.374770  16.304100  22.644600   0.006256  -0.000626  15.851200   0.009779  -0.000397  27.283800   5.651320  10.800400  30.890500   0.001606   0.007252  20.573100   0.006220   0.003733  25.063000   4.915020  10.402300  25.509900   0.005856   0.010727  16.989500   0.006889   0.006248  29.341600   1.367490   2.409010  44.056200   0.002327   0.000864  29.341400   0.007781   0.001353   0.820239   7.716930  -1.643940   1.021850   0.063192   8.032900  -0.087642  -1.836490  -1.023150   0.000000   0.000000  -0.000000   4.694210   5.509190  -2.054200  -2.052430   4.329990 -16.159600  -0.373302  -4.061310   2.892540   0.000000   0.000000   0.000000
 -0.059404  89.594900  -0.645478  -2.439310  -6.956300  -0.933268   0.216819   3.731960  -0.756303   0.484641   7.460690  -1.531670   0.164345   0.741190  -0.014542   0.270119   1.502400   3.972550  -0.571461  -2.121350   2.022040 -75.145100  11.051900   1.670010  -1.434490  -2.392520 -12.808900  13.944300  -4.916780  -1.985400  39.179100  28.096200 -48.874700 -29.279100   0.001671   0.014417  -9.639560   0.000867   0.006218 -31.210700   8.495390 -13.703000 -26.372700   0.003464  -0.001279 -18.460900   0.003451  -0.008668 -28.727500   1.349590  -2.459410 -40.812000  -0.006100  -0.006472 -27.180800  -0.001806  -0.014568 -28.633200   1.345160  -2.461840 -38.393000   0.002976  -0.001258 -25.569700   0.002531   0.000559 -33.770400   0.512077  -0.771013 -50.660900  -0.004217  -0.000904 -33.740100  -0.002995   0.001625   6.562390  -0.001322   2.070870  72.997300   1.886790  -6.648950   0.914115  -6.125550   7.923180  -6.805340  -8.394870   6.155790 -44.533200  25.519200  56.894700  16.188800  -0.005734   0.001746   3.094420  -0.000685   0.003861  26.447600   8.356770  16.286700  22.619000   0.006247  -0.000644  15.833300   0.009767  -0.000406  27.277300   5.651180  10.806200  30.855100   0.001606   0.007248  20.549500   0.006191   0.003726  25.048500   4.914940  10.407100  25.495600   0.005849   0.010723  16.980000   0.006862   0.006238  29.331500   1.367590   2.414310  44.041100   0.002325   0.000830  29.331300   0.007774   0.001345   0.813394   7.694740  -1.644110   1.023400   0.127474   8.031460  -0.091345  -1.861660  -1.035670  -0.000000   0.000000   0.000000   4.702670   5.509680  -2.050190  -2.061970   4.357700 -16.165000  -0.374051  -4.074020   2.874680  -0.000000   0.000000   0.000000
 -0.059500  89.594800  -0.648485  -2.437360  -6.976100  -0.915059   0.216885   3.746320  -0.755496   0.484918   7.489420  -1.530150   0.164224   0.734125  -0.014524   0.270245   1.488210   3.984330  -0.571226  -2.111570   2.013550 -75.146700  11.045400   1.665870  -1.448580  -2.396530 -12.841400  13.942900  -4.950960  -1.972180  39.174600  28.096300 -48.887500 -29.287200   0.001678   0.014439  -9.643600   0.000885   0.006224 -31.220800   8.479750 -13.668600 -26.378500   0.003463  -0.001278 -18.465000   0.003447  -0.008670 -28.729200   1.330170  -2.423920 -40.829700  -0.006096  -0.006425 -27.192700  -0.001803  -0.014566 -28.634900   1.325820  -2.426310 -38.408500   0.002984  -0.001253 -25.580000   0.002536   0.000625 -33.778700   0.511970  -0.768095 -50.673200  -0.004213  -0.000855 -33.748300  -0.002995   0.001622   6.561940   0.009920   2.060650  72.986600   1.886160  -6.621050   0.906707  -6.103930   7.939300  -6.812090  -8.391090   6.154920 -44.547600  25.548900  56.911300  16.198400  -0.005740   0.001750   3.099210  -0.000687   0.003883  26.433000   8.356910  16.293500  22.607800   0.006230  -0.000663  15.826100   0.009756  -0.000416  27.272900   5.651070  10.810000  30.837700   0.001598   0.007237  20.537900   0.006155   0.003718  25.041500   4.914950  10.407000  25.488500   0.005839   0.010714  16.975900   0.006830   0.006225  29.319500   1.367690   2.417590  44.022900   0.002324   0.000787  29.319200   0.007766   0.001337   0.808319   7.754390  -1.644110   1.025530   0.065694   8.029700  -0.088825  -1.842320  -1.047490   0.000000   0.000000   0.000000   4.707810   5.512520  -2.048110  -2.069290   4.388800 -16.167000  -0.374479  -4.086680   2.858050   0.000000   0.000000   0.000000
